<?xml version="1.0" encoding="utf-8"?>
<!-- Generator: Adobe Illustrator 28.1.0, SVG Export Plug-In . SVG Version: 6.00 Build 0)  -->
<svg version="1.1" id="Layer_1" xmlns="http://www.w3.org/2000/svg" xmlns:xlink="http://www.w3.org/1999/xlink" x="0px" y="0px"
	 viewBox="0 0 1080 769" style="enable-background:new 0 0 1080 769;" xml:space="preserve">
<style type="text/css">
	.st0{fill:#FFFFFF;}
</style>
<rect x="0.71" y="-0.46" class="st0" width="1078.59" height="769.92"/>
<g>
	<g>
		<path d="M322.99,382.82c0-22.34,17.24-38.2,40.82-38.2c23.58,0,40.69,15.86,40.69,38.2c0,22.34-17.1,38.2-40.69,38.2
			C340.23,421.02,322.99,405.16,322.99,382.82z M382.71,382.82c0-12.83-8.14-20.55-18.89-20.55c-10.76,0-19.03,7.72-19.03,20.55
			c0,12.83,8.28,20.55,19.03,20.55C374.57,403.37,382.71,395.65,382.71,382.82z"/>
		<path d="M413.32,382.82c0-22.34,17.24-38.2,40.82-38.2c23.58,0,40.69,15.86,40.69,38.2c0,22.34-17.1,38.2-40.69,38.2
			C430.56,421.02,413.32,405.16,413.32,382.82z M473.04,382.82c0-12.83-8.14-20.55-18.89-20.55c-10.76,0-19.03,7.72-19.03,20.55
			c0,12.83,8.28,20.55,19.03,20.55C464.9,403.37,473.04,395.65,473.04,382.82z"/>
		<path d="M555.24,344.62v19.86c-1.79-0.14-3.17-0.28-4.83-0.28c-11.86,0-19.72,6.48-19.72,20.69v35.03h-21.51v-74.2h20.55v9.79
			C534.96,348.34,543.79,344.62,555.24,344.62z"/>
		<path d="M561.16,413.03l7.17-15.45c6.62,4.28,16.69,7.17,25.79,7.17c9.93,0,13.65-2.62,13.65-6.76c0-12.14-44.82,0.28-44.82-29.38
			c0-14.07,12.69-24,34.34-24c10.21,0,21.51,2.34,28.55,6.48l-7.17,15.31c-7.31-4.14-14.62-5.52-21.38-5.52
			c-9.65,0-13.79,3.03-13.79,6.9c0,12.69,44.82,0.41,44.82,29.65c0,13.79-12.83,23.58-35.03,23.58
			C580.75,421.02,568.06,417.58,561.16,413.03z"/>
		<path d="M686.25,416.34c-4.41,3.17-10.9,4.69-17.38,4.69c-17.65,0-27.72-8.96-27.72-26.62v-65.1h21.52v18.07h18.34v16.55h-18.34
			v30.2c0,6.34,3.31,9.79,9.1,9.79c3.17,0,6.34-0.97,8.83-2.76L686.25,416.34z"/>
		<path d="M752.03,396.61l11.45,12.41c-6.9,7.86-17.24,12-30.62,12c-25.65,0-42.34-16.14-42.34-38.2c0-22.2,16.83-38.2,39.72-38.2
			c20.96,0,38.2,13.79,38.34,37.51l-54.89,10.62c3.17,7.31,10.07,11.03,19.72,11.03C741.28,403.79,746.93,401.44,752.03,396.61z
			 M711.62,380.62l36.13-7.03c-2.07-7.59-8.55-12.69-17.52-12.69C719.48,360.89,712.04,368.06,711.62,380.62z"/>
		<path d="M863.88,382.82c0,23.31-16.14,38.2-36.96,38.2c-9.24,0-16.83-2.9-22.34-8.96v34.62h-21.52V345.72h20.55v8.55
			c5.38-6.48,13.38-9.65,23.31-9.65C847.74,344.62,863.88,359.51,863.88,382.82z M842.09,382.82c0-12.83-8.14-20.55-18.89-20.55
			S804.3,370,804.3,382.82c0,12.83,8.14,20.55,18.89,20.55S842.09,395.65,842.09,382.82z"/>
	</g>
	<path d="M301.57,381.64h-24.02c-0.24,0-0.49,0.07-0.7,0.2l-34.57,21.29c-0.19,0.11-0.42-0.02-0.42-0.24v-18.01
		c0-0.39,0.21-0.75,0.54-0.96l39.33-24.22c0.17-0.1,0.09-0.36-0.1-0.36c-8.93,0.04-16.57,0.05-22.94,0.02
		c-0.85,0-1.65,0.23-2.39,0.69c-10.41,6.45-21.6,13.35-33.6,20.71c-0.22,0.14-0.51-0.02-0.51-0.28v-18.18
		c0-0.22,0.11-0.41,0.29-0.52l39.57-24.37c0.17-0.1,0.09-0.37-0.11-0.37c-6.13,0.04-13.82,0.06-23.06,0.04
		c-0.83,0-1.67,0.26-2.53,0.8c-4.48,2.83-11.07,6.9-19.77,12.22c-0.2,0.12-0.46-0.02-0.46-0.26v-27.27c0-0.12,0.1-0.22,0.22-0.22
		c14.3,0.01,28.46,0,42.46-0.02c6.92-0.01,11.89,0.27,14.91,0.85c27.9,5.38,45.31,32.54,38.36,60.1
		c-4.95,19.61-21.74,34.02-41.91,36.26c-3.07,0.34-5.87,0.46-8.41,0.34c-0.17-0.01-0.3-0.15-0.3-0.31v-12.41
		c0-0.33,0.18-0.65,0.46-0.82l39.73-24.47C301.75,381.8,301.7,381.64,301.57,381.64L301.57,381.64z"/>
</g>
</svg>
